# xmcd CD database file
#
# Track frame offsets:
#	150
#	14362
#	40812
#	64697
#	89415
#	108755
#	127150
#	149097
#	180932
#	210575
#	232702
#	271587
#	308475
#
# Disc length: 4433 seconds
#
# Revision: 0
# Processed by: cddbd v1.5.1PL0 Copyright (c) Steve Scherf et al.
# Submitted via: CDex 1.51
#
DISCID=a4114f0d
DTITLE=Doyle Bramhall II and Smokestack - Welcome
DYEAR=2001
DGENRE=Blues
TTITLE0=Green Light Girl
TTITLE1=Problem Child
TTITLE2=So You Want It to Rain
TTITLE3=Life
TTITLE4=Helpless Man
TTITLE5=Soul Shaker
TTITLE6=Send Some Love
TTITLE7=Smokestack
TTITLE8=Last Night
TTITLE9=Blame
TTITLE10=Thin Dream
TTITLE11=Cry
TTITLE12=Lightning (bonus track for japan only)
EXTD=YEAR: 2001
EXTT0=
EXTT1=
EXTT2=
EXTT3=
EXTT4=
EXTT5=
EXTT6=
EXTT7=
EXTT8=
EXTT9=
EXTT10=
EXTT11=
EXTT12=
PLAYORDER=
